<svg version="1.1" xmlns="http://www.w3.org/2000/svg" xmlns:xlink="http://www.w3.org/1999/xlink" viewBox="0 0 172 172"><g fill="none" fill-rule="nonzero" stroke="none" stroke-width="1" stroke-linecap="butt" stroke-linejoin="miter" stroke-miterlimit="10" stroke-dasharray="" stroke-dashoffset="0" font-family="none" font-weight="none" font-size="none" text-anchor="none" style="mix-blend-mode: normal"><path d="M0,172v-172h172v172z" fill="none"></path><g fill="#000000"><path d="M107.4312,99.32427c19.36911,-23.68897 16.76075,-58.40478 -5.93065,-78.93355c-22.6914,-20.52877 -57.49418,-19.65859 -79.1313,1.97853c-21.63712,21.63712 -22.5073,56.4399 -1.97853,79.1313c20.52877,22.6914 55.24458,25.29976 78.93355,5.93065l57.1556,57.1556c2.24964,2.17277 5.82555,2.1417 8.03709,-0.06984c2.21154,-2.21154 2.24261,-5.78745 0.06984,-8.03709zM17.2,63.06667c0,-25.33146 20.53521,-45.86667 45.86667,-45.86667c25.33146,0 45.86667,20.53521 45.86667,45.86667c0,25.33146 -20.53521,45.86667 -45.86667,45.86667c-25.31967,-0.02844 -45.83823,-20.54699 -45.86667,-45.86667z"></path></g></g></svg>